# xmcd
#
# Track frame offsets:
# 150
# 16454
# 35873
# 53503
# 79624
# 97274
# 111307
# 119739
# 141958
# 156062
# 170751
# 188748
# 201606
# 216209
#
# Disc length: 3239 seconds
#
#
# Revision: 0
# Processed by: cddbd v1.5.2PL0 Copyright (c) Steve Scherf et al.
# Submitted via: Nero 7, 11, 10, 0 
#
DISCID=d50ca50e
DTITLE=The Rhythm Chiefs - Ships Of Wonder
DYEAR=2008
DGENRE=Blues
TTITLE0=High Water
TTITLE1=Gone Ridin'
TTITLE2=Tell Me
TTITLE3=Ships Of Wonder
TTITLE4=Five More Miles
TTITLE5=Break That Bottle
TTITLE6=Tribute To Jimmy B.
TTITLE7=The Buzz
TTITLE8=Please Don't Love Me
TTITLE9=It Wasn't Me
TTITLE10=What's Your Color
TTITLE11=Here Comes The Rain Again
TTITLE12=Looky There
TTITLE13=Chiefs
EXTD=
EXTT0=High Water
EXTT1=Gone Ridin'
EXTT2=Tell Me
EXTT3=Ships Of Wonder
EXTT4=Five More Miles
EXTT5=Break That Bottle
EXTT6=Tribute To Jimmy B.
EXTT7=The Buzz
EXTT8=Please Don't Love Me
EXTT9=It Wasn't Me
EXTT10=What's Your Color
EXTT11=Here Comes The Rain Again
EXTT12=Looky There
EXTT13=Chiefs
PLAYORDER=
